<mxfile host="65bd71144e">
    <diagram id="XBKWmbbUBIa9pNK8uKtS" name="ページ1">
        <mxGraphModel dx="832" dy="659" grid="1" gridSize="10" guides="1" tooltips="1" connect="1" arrows="1" fold="1" page="1" pageScale="1" pageWidth="827" pageHeight="1169" math="0" shadow="0">
            <root>
                <mxCell id="0"/>
                <mxCell id="1" parent="0"/>
                <mxCell id="21" value="Usersテーブル" style="swimlane;fontStyle=0;childLayout=stackLayout;horizontal=1;startSize=26;horizontalStack=0;resizeParent=1;resizeParentMax=0;resizeLast=0;collapsible=1;marginBottom=0;align=center;fontSize=14;" vertex="1" parent="1">
                    <mxGeometry x="140" y="40" width="160" height="150" as="geometry">
                        <mxRectangle x="140" y="50" width="60" height="30" as="alternateBounds"/>
                    </mxGeometry>
                </mxCell>
                <mxCell id="23" value="nickname&lt;div&gt;email&lt;/div&gt;&lt;div&gt;encrypted_passwora&lt;/div&gt;&lt;div&gt;last_name&lt;/div&gt;&lt;div&gt;first_name&lt;/div&gt;&lt;div&gt;last_name_kana&lt;/div&gt;&lt;div&gt;first_name_kana&lt;/div&gt;&lt;div&gt;birthday&lt;/div&gt;&lt;div&gt;&lt;br&gt;&lt;/div&gt;" style="text;strokeColor=none;fillColor=none;spacingLeft=4;spacingRight=4;overflow=hidden;rotatable=0;points=[[0,0.5],[1,0.5]];portConstraint=eastwest;fontSize=12;whiteSpace=wrap;html=1;" vertex="1" parent="21">
                    <mxGeometry y="26" width="160" height="124" as="geometry"/>
                </mxCell>
                <mxCell id="41" value="oredersテーブル" style="swimlane;fontStyle=0;childLayout=stackLayout;horizontal=1;startSize=26;horizontalStack=0;resizeParent=1;resizeParentMax=0;resizeLast=0;collapsible=1;marginBottom=0;align=center;fontSize=14;" vertex="1" parent="1">
                    <mxGeometry x="130" y="390" width="160" height="130" as="geometry"/>
                </mxCell>
                <mxCell id="42" value="user&lt;div&gt;item&lt;/div&gt;&lt;div&gt;&lt;br&gt;&lt;/div&gt;" style="text;strokeColor=none;fillColor=none;spacingLeft=4;spacingRight=4;overflow=hidden;rotatable=0;points=[[0,0.5],[1,0.5]];portConstraint=eastwest;fontSize=12;whiteSpace=wrap;html=1;" vertex="1" parent="41">
                    <mxGeometry y="26" width="160" height="104" as="geometry"/>
                </mxCell>
                <mxCell id="45" value="shipping_addressesテーブル" style="swimlane;fontStyle=0;childLayout=stackLayout;horizontal=1;startSize=20;horizontalStack=0;resizeParent=1;resizeParentMax=0;resizeLast=0;collapsible=1;marginBottom=0;align=center;fontSize=14;" vertex="1" parent="1">
                    <mxGeometry x="490" y="393" width="220" height="130" as="geometry"/>
                </mxCell>
                <mxCell id="46" value="postal_code&lt;div&gt;prefecture_id&lt;/div&gt;&lt;div&gt;city&lt;/div&gt;&lt;div&gt;address&lt;/div&gt;&lt;div&gt;building&lt;/div&gt;&lt;div&gt;phone_number&lt;/div&gt;&lt;div&gt;oreder&lt;/div&gt;" style="text;strokeColor=none;fillColor=none;spacingLeft=4;spacingRight=4;overflow=hidden;rotatable=0;points=[[0,0.5],[1,0.5]];portConstraint=eastwest;fontSize=12;whiteSpace=wrap;html=1;" vertex="1" parent="45">
                    <mxGeometry y="20" width="220" height="110" as="geometry"/>
                </mxCell>
                <mxCell id="49" value="" style="edgeStyle=entityRelationEdgeStyle;fontSize=12;html=1;endArrow=ERzeroToMany;endFill=1;exitX=1;exitY=0.5;exitDx=0;exitDy=0;" edge="1" parent="1">
                    <mxGeometry width="100" height="100" relative="1" as="geometry">
                        <mxPoint x="298" y="90" as="sourcePoint"/>
                        <mxPoint x="540" y="90" as="targetPoint"/>
                        <Array as="points">
                            <mxPoint x="328" y="-61.000000000000014"/>
                            <mxPoint x="418" y="107.88999999999999"/>
                            <mxPoint x="528" y="87.88999999999999"/>
                            <mxPoint x="418" y="107.88999999999999"/>
                            <mxPoint x="428" y="109"/>
                        </Array>
                    </mxGeometry>
                </mxCell>
                <mxCell id="60" value="" style="edgeStyle=entityRelationEdgeStyle;fontSize=12;html=1;endArrow=ERmandOne;startArrow=ERmandOne;entryX=0;entryY=0.233;entryDx=0;entryDy=0;entryPerimeter=0;" edge="1" parent="1">
                    <mxGeometry width="100" height="100" relative="1" as="geometry">
                        <mxPoint x="290" y="450" as="sourcePoint"/>
                        <mxPoint x="490" y="449.99" as="targetPoint"/>
                        <Array as="points">
                            <mxPoint x="250" y="467.5"/>
                            <mxPoint x="280" y="567.5"/>
                            <mxPoint x="390" y="407.5"/>
                            <mxPoint x="320" y="527.5"/>
                        </Array>
                    </mxGeometry>
                </mxCell>
                <mxCell id="61" value="" style="edgeStyle=entityRelationEdgeStyle;fontSize=12;html=1;endArrow=ERmandOne;startArrow=ERmandOne;entryX=0.018;entryY=1;entryDx=0;entryDy=0;entryPerimeter=0;" edge="1" parent="1">
                    <mxGeometry width="100" height="100" relative="1" as="geometry">
                        <mxPoint x="250" y="390" as="sourcePoint"/>
                        <mxPoint x="542.8800000000001" y="126" as="targetPoint"/>
                    </mxGeometry>
                </mxCell>
                <mxCell id="62" value="" style="fontSize=12;html=1;endArrow=ERzeroToMany;endFill=1;entryX=0.5;entryY=0;entryDx=0;entryDy=0;" edge="1" parent="1" target="41">
                    <mxGeometry width="100" height="100" relative="1" as="geometry">
                        <mxPoint x="206.25" y="190" as="sourcePoint"/>
                        <mxPoint x="213.75" y="410" as="targetPoint"/>
                        <Array as="points"/>
                    </mxGeometry>
                </mxCell>
                <mxCell id="66" value="items テーブル" style="swimlane;fontStyle=0;childLayout=stackLayout;horizontal=1;startSize=26;horizontalStack=0;resizeParent=1;resizeParentMax=0;resizeLast=0;collapsible=1;marginBottom=0;align=center;fontSize=14;" vertex="1" parent="1">
                    <mxGeometry x="540" y="40" width="160" height="150" as="geometry"/>
                </mxCell>
                <mxCell id="67" value="name&lt;div&gt;description&lt;/div&gt;&lt;div&gt;price&lt;/div&gt;&lt;div&gt;category_id&lt;/div&gt;&lt;div&gt;status_id&lt;/div&gt;&lt;div&gt;shippng_fee_status_id&lt;/div&gt;&lt;div&gt;prefecture_delivery_id&lt;/div&gt;&lt;div&gt;user&lt;/div&gt;&lt;div&gt;&lt;br&gt;&lt;/div&gt;" style="text;strokeColor=none;fillColor=none;spacingLeft=4;spacingRight=4;overflow=hidden;rotatable=0;points=[[0,0.5],[1,0.5]];portConstraint=eastwest;fontSize=12;whiteSpace=wrap;html=1;" vertex="1" parent="66">
                    <mxGeometry y="26" width="160" height="124" as="geometry"/>
                </mxCell>
            </root>
        </mxGraphModel>
    </diagram>
</mxfile>